<svg width="16" height="18" viewBox="0 0 16 18" fill="none" xmlns="http://www.w3.org/2000/svg">
<path id="Vector" d="M0 10.8L3.55555 13.05L6.22221 9.9L8.88888 13.5L10.6667 11.25L13.3333 11.7L10.6667 9L8.88888 11.25L6.22221 6.75L3.11111 10.125L0 7.2V0.8928C0 0.4095 0.397333 0 0.88711 0H9.77776V5.4C9.77776 5.63869 9.87141 5.86761 10.0381 6.0364C10.2048 6.20518 10.4309 6.3 10.6667 6.3H16V17.0937C16.0008 17.2119 15.9786 17.3291 15.9347 17.4386C15.8908 17.5481 15.826 17.6478 15.744 17.7319C15.6621 17.8161 15.5645 17.8831 15.457 17.9291C15.3495 17.9751 15.234 17.9992 15.1173 18H0.882665C0.648722 18 0.424347 17.906 0.258841 17.7386C0.0933345 17.5712 0.000235593 17.3441 0 17.1072V10.8ZM16 4.5H11.5555V0.00270002L16 4.5Z" fill="#8C8C8C"/>
</svg>
