<svg width="20" height="16" viewBox="0 0 20 16" fill="none" xmlns="http://www.w3.org/2000/svg">
<path id="Vector" d="M19.9276 9.011C19.7776 6.9905 19.5304 6.597 19.4371 6.449C19.2225 6.107 18.8791 5.8835 18.5157 5.649C18.4952 5.63596 18.4774 5.61737 18.4639 5.5947C18.4503 5.57203 18.4414 5.54589 18.4377 5.51835C18.434 5.49081 18.4357 5.46262 18.4427 5.43601C18.4496 5.4094 18.4617 5.38509 18.4778 5.365C18.5451 5.28311 18.5968 5.18472 18.6294 5.07657C18.662 4.96842 18.6747 4.85309 18.6666 4.7385C18.6509 4.53531 18.5721 4.3466 18.4459 4.20981C18.3197 4.07301 18.1553 3.99813 17.9852 4H17.3351C17.3072 4.0002 17.2794 4.00237 17.2518 4.0065C17.2328 3.99662 17.2131 3.98876 17.193 3.983C16.808 3.0065 16.2808 1.6695 15.1881 1.017C13.5675 0.0499998 10.582 0 9.99862 0C9.4152 0 6.42976 0.0499999 4.81119 1.0155C3.71853 1.668 3.19137 3.005 2.80631 3.9815L2.80298 3.9895C2.78377 3.99274 2.76491 3.99844 2.74672 4.0065C2.71907 4.00237 2.69124 4.0002 2.66337 4H2.01203C1.84196 3.99813 1.67751 4.07301 1.5513 4.20981C1.4251 4.3466 1.34635 4.53531 1.33068 4.7385C1.32327 4.85282 1.33653 4.96771 1.36955 5.07532C1.40256 5.18293 1.45455 5.28072 1.52195 5.362C1.53808 5.38209 1.5501 5.4064 1.55705 5.43301C1.56401 5.45962 1.56572 5.48781 1.56204 5.51535C1.55836 5.54289 1.5494 5.56903 1.53586 5.5917C1.52233 5.61437 1.50458 5.63296 1.48403 5.646C1.12065 5.882 0.775595 6.1055 0.562647 6.446C0.4693 6.596 0.222597 6.9875 0.0721584 9.008C-0.0111872 10.145 -0.023689 11.322 0.0417372 12.08C0.178841 13.655 0.435962 14.607 0.446797 14.6465C0.486252 14.7902 0.55888 14.9176 0.656248 15.0138C0.753616 15.11 0.871731 15.1711 0.996878 15.19V15.2C0.996878 15.4122 1.06713 15.6157 1.19217 15.7657C1.31721 15.9157 1.48681 16 1.66364 16H3.99732C4.17416 16 4.34375 15.9157 4.46879 15.7657C4.59384 15.6157 4.66408 15.4122 4.66408 15.2C5.02289 15.2 5.27251 15.123 5.53713 15.041C5.91918 14.9175 6.30969 14.8353 6.70397 14.7955C7.9754 14.65 9.23976 14.6 9.99862 14.6C10.7421 14.6 12.0623 14.65 13.3358 14.7955C13.7316 14.8354 14.1237 14.9179 14.5072 15.042C14.7606 15.12 15.001 15.192 15.334 15.1995C15.334 15.4117 15.4042 15.6152 15.5293 15.7652C15.6543 15.9152 15.8239 15.9995 16.0008 15.9995H18.3344C18.5113 15.9995 18.6809 15.9152 18.8059 15.7652C18.9309 15.6152 19.0012 15.4117 19.0012 15.1995V15.1935C19.1266 15.175 19.2451 15.114 19.3428 15.0178C19.4405 14.9216 19.5134 14.794 19.5529 14.65C19.5638 14.6105 19.8209 13.6585 19.958 12.0835C20.0234 11.325 20.0118 10.15 19.9276 9.011ZM4.01149 4.6655C4.34487 3.8155 4.72618 2.8535 5.40503 2.448C6.386 1.862 8.41922 1.598 9.99862 1.598C11.578 1.598 13.6112 1.86 14.5922 2.448C15.2711 2.8535 15.6507 3.816 15.9857 4.6655L16.0274 4.774C16.0518 4.83577 16.0626 4.904 16.0587 4.97218C16.0549 5.04036 16.0365 5.10622 16.0054 5.16348C15.9743 5.22074 15.9315 5.26749 15.8811 5.29927C15.8307 5.33104 15.7743 5.34679 15.7174 5.345C14.3326 5.3 11.4155 5.156 9.99862 5.156C8.58174 5.156 5.66465 5.3035 4.27778 5.3485C4.22084 5.35029 4.16447 5.33454 4.11404 5.30276C4.06362 5.27099 4.02082 5.22424 3.98973 5.16698C3.95864 5.10972 3.94029 5.04386 3.93644 4.97568C3.93259 4.9075 3.94336 4.83927 3.96773 4.7775C3.98232 4.7405 3.99774 4.703 4.01149 4.6655ZM4.50864 8.647C3.79179 8.75052 3.07035 8.80161 2.34833 8.8C1.90659 8.8 1.45111 8.65 1.36652 8.178C1.30859 7.8605 1.31484 7.682 1.3461 7.5025C1.37235 7.35 1.41402 7.239 1.62239 7.2C2.16413 7.1 2.46709 7.2255 3.35389 7.539C3.94189 7.7465 4.36612 8.023 4.60783 8.242C4.72909 8.35 4.6645 8.632 4.50864 8.647ZM13.7342 12.747C13.1858 12.822 12.0889 12.7945 10.0111 12.7945C7.93331 12.7945 6.8369 12.822 6.28849 12.747C5.72257 12.6715 5.00122 12.0295 5.49379 11.4575C5.82175 11.0805 6.58687 10.7985 7.60577 10.64C8.62467 10.4815 9.05598 10.4 10.007 10.4C10.9579 10.4 11.3455 10.45 12.4081 10.6405C13.4708 10.831 14.2738 11.1165 14.5201 11.458C14.9693 12.07 14.2997 12.6675 13.7342 12.75V12.747ZM18.6307 8.1775C18.5474 8.6515 18.089 8.7995 17.6489 8.7995C16.9131 8.79971 16.1778 8.74862 15.4469 8.6465C15.3194 8.632 15.2602 8.3635 15.3894 8.2415C15.6274 8.017 16.0562 7.746 16.6433 7.5385C17.5301 7.225 18.0415 7.0995 18.4807 7.204C18.5878 7.2295 18.6445 7.3675 18.6511 7.454C18.6805 7.69485 18.6736 7.94008 18.6307 8.178V8.1775Z" fill="white"/>
</svg>
